<mxfile host="app.diagrams.net" modified="2020-11-23T10:21:43.510Z" agent="5.0 (Windows NT 10.0; Win64; x64) AppleWebKit/537.36 (KHTML, like Gecko) Chrome/87.0.4280.66 Safari/537.36" etag="WWqktWk0VvxLYFj1WU2m" version="13.10.1" type="github">
  <diagram id="H_w9qMX322R7t5whKCUk" name="Page-1">
    <mxGraphModel dx="782" dy="469" grid="1" gridSize="10" guides="1" tooltips="1" connect="1" arrows="1" fold="1" page="1" pageScale="1" pageWidth="827" pageHeight="1169" math="0" shadow="0">
      <root>
        <mxCell id="0" />
        <mxCell id="1" parent="0" />
        <mxCell id="M6lRAd3A8MSB1jA9h11j-2" value="" style="whiteSpace=wrap;html=1;aspect=fixed;" vertex="1" parent="1">
          <mxGeometry x="80" y="270" width="120" height="120" as="geometry" />
        </mxCell>
        <mxCell id="M6lRAd3A8MSB1jA9h11j-3" value="" style="whiteSpace=wrap;html=1;aspect=fixed;" vertex="1" parent="1">
          <mxGeometry x="320" y="270" width="120" height="120" as="geometry" />
        </mxCell>
        <mxCell id="M6lRAd3A8MSB1jA9h11j-4" value="" style="whiteSpace=wrap;html=1;aspect=fixed;" vertex="1" parent="1">
          <mxGeometry x="80" y="30" width="120" height="120" as="geometry" />
        </mxCell>
        <mxCell id="M6lRAd3A8MSB1jA9h11j-7" value="" style="html=1;shadow=0;dashed=0;align=center;verticalAlign=middle;shape=mxgraph.arrows2.arrow;dy=0.6;dx=40;direction=south;notch=0;" vertex="1" parent="1">
          <mxGeometry x="105" y="160" width="70" height="100" as="geometry" />
        </mxCell>
        <mxCell id="M6lRAd3A8MSB1jA9h11j-8" value="" style="html=1;shadow=0;dashed=0;align=center;verticalAlign=middle;shape=mxgraph.arrows2.arrow;dy=0.6;dx=40;notch=0;" vertex="1" parent="1">
          <mxGeometry x="210" y="285" width="100" height="70" as="geometry" />
        </mxCell>
        <mxCell id="M6lRAd3A8MSB1jA9h11j-9" value="Client&lt;br&gt;" style="text;html=1;strokeColor=none;fillColor=none;align=center;verticalAlign=middle;whiteSpace=wrap;rounded=0;" vertex="1" parent="1">
          <mxGeometry x="120" y="30" width="40" height="20" as="geometry" />
        </mxCell>
        <mxCell id="M6lRAd3A8MSB1jA9h11j-12" value="Vente" style="text;html=1;strokeColor=none;fillColor=none;align=center;verticalAlign=middle;whiteSpace=wrap;rounded=0;" vertex="1" parent="1">
          <mxGeometry x="120" y="280" width="40" height="20" as="geometry" />
        </mxCell>
        <mxCell id="M6lRAd3A8MSB1jA9h11j-13" value="Produit&lt;br&gt;" style="text;html=1;strokeColor=none;fillColor=none;align=center;verticalAlign=middle;whiteSpace=wrap;rounded=0;" vertex="1" parent="1">
          <mxGeometry x="360" y="280" width="40" height="20" as="geometry" />
        </mxCell>
      </root>
    </mxGraphModel>
  </diagram>
</mxfile>
